<svg width="14" height="15" viewBox="0 0 14 15" fill="none" xmlns="http://www.w3.org/2000/svg">
<path d="M10.6721 3.6456L12.2295 5.20223L10.6721 3.6456ZM11.6736 2.27426L7.46254 6.48534C7.24496 6.70262 7.09657 6.97945 7.03607 7.28093L6.64709 9.22801L8.59417 8.8383C8.89565 8.77801 9.17212 8.63021 9.38977 8.41256L13.6008 4.20149C13.7274 4.07495 13.8278 3.92472 13.8962 3.75938C13.9647 3.59404 14 3.41684 14 3.23788C14 3.05892 13.9647 2.88171 13.8962 2.71637C13.8278 2.55104 13.7274 2.40081 13.6008 2.27426C13.4743 2.14772 13.3241 2.04734 13.1587 1.97886C12.9934 1.91037 12.8162 1.87512 12.6372 1.87512C12.4583 1.87512 12.2811 1.91037 12.1157 1.97886C11.9504 2.04734 11.8002 2.14772 11.6736 2.27426V2.27426Z" stroke="#6E6893" stroke-width="2" stroke-linecap="round" stroke-linejoin="round"/>
<path d="M12.5295 10.6986V12.9045C12.5295 13.2945 12.3746 13.6686 12.0988 13.9444C11.823 14.2202 11.449 14.3751 11.0589 14.3751H2.9706C2.58058 14.3751 2.20652 14.2202 1.93073 13.9444C1.65494 13.6686 1.5 13.2945 1.5 12.9045V4.81618C1.5 4.42616 1.65494 4.0521 1.93073 3.77631C2.20652 3.50052 2.58058 3.34558 2.9706 3.34558H5.17651" stroke="#6E6893" stroke-width="2" stroke-linecap="round" stroke-linejoin="round"/>
</svg>
