<svg width="20" height="20" viewBox="0 0 20 20" fill="none" xmlns="http://www.w3.org/2000/svg">
<g clip-path="url(#clip0_1201_200)">
<path d="M15.5629 4.86079L17.6394 6.9363L15.5629 4.86079ZM16.8982 3.03234L11.2834 8.64711C10.9933 8.93681 10.7955 9.30592 10.7148 9.7079L10.1962 12.304L12.7923 11.7844C13.1942 11.704 13.5629 11.5069 13.8531 11.2167L19.4678 5.60198C19.6366 5.43325 19.7704 5.23295 19.8617 5.0125C19.953 4.79205 20 4.55577 20 4.31716C20 4.07855 19.953 3.84227 19.8617 3.62182C19.7704 3.40137 19.6366 3.20107 19.4678 3.03234C19.2991 2.86362 19.0988 2.72978 18.8784 2.63846C18.6579 2.54715 18.4216 2.50015 18.183 2.50015C17.9444 2.50015 17.7081 2.54715 17.4877 2.63846C17.2672 2.72978 17.0669 2.86362 16.8982 3.03234V3.03234Z" stroke="#6E6893" stroke-width="2" stroke-linecap="round" stroke-linejoin="round"/>
<path d="M18.0394 14.2648V17.206C18.0394 17.7261 17.8328 18.2248 17.4651 18.5925C17.0973 18.9602 16.5986 19.1668 16.0786 19.1668H5.29415C4.77411 19.1668 4.27537 18.9602 3.90765 18.5925C3.53993 18.2248 3.33334 17.7261 3.33334 17.206V6.42159C3.33334 5.90155 3.53993 5.40281 3.90765 5.03509C4.27537 4.66737 4.77411 4.46078 5.29415 4.46078H8.23535" stroke="#6E6893" stroke-width="2" stroke-linecap="round" stroke-linejoin="round"/>
</g>
<defs>
<clipPath id="clip0_1201_200">
<rect width="20" height="20" fill="white"/>
</clipPath>
</defs>
</svg>
